<mxfile host="app.diagrams.net" agent="Mozilla/5.0 (Windows NT 10.0; Win64; x64) AppleWebKit/537.36 (KHTML, like Gecko) Chrome/130.0.0.0 Safari/537.36" version="24.8.4">
  <diagram name="Страница — 1" id="W-Us1DtaynbtMstBT9SI">
    <mxGraphModel dx="2022" dy="1812" grid="1" gridSize="10" guides="1" tooltips="1" connect="1" arrows="1" fold="1" page="1" pageScale="1" pageWidth="827" pageHeight="1169" math="0" shadow="0">
      <root>
        <mxCell id="0" />
        <mxCell id="1" parent="0" />
        <mxCell id="cbkUk82IDQME-z0V9-cf-59" style="edgeStyle=orthogonalEdgeStyle;rounded=0;orthogonalLoop=1;jettySize=auto;html=1;" edge="1" parent="1" source="cbkUk82IDQME-z0V9-cf-2" target="cbkUk82IDQME-z0V9-cf-56">
          <mxGeometry relative="1" as="geometry" />
        </mxCell>
        <mxCell id="cbkUk82IDQME-z0V9-cf-2" value="" style="ellipse;fillColor=strokeColor;html=1;" vertex="1" parent="1">
          <mxGeometry x="-70" y="245" width="20" height="20" as="geometry" />
        </mxCell>
        <mxCell id="cbkUk82IDQME-z0V9-cf-22" value="Сотрудник" style="text;html=1;align=center;verticalAlign=middle;resizable=0;points=[];autosize=1;strokeColor=none;fillColor=none;fontStyle=1" vertex="1" parent="1">
          <mxGeometry x="-100" y="195" width="80" height="30" as="geometry" />
        </mxCell>
        <mxCell id="cbkUk82IDQME-z0V9-cf-40" value="" style="ellipse;fillColor=strokeColor;html=1;" vertex="1" parent="1">
          <mxGeometry x="790" y="70" width="20" height="20" as="geometry" />
        </mxCell>
        <mxCell id="cbkUk82IDQME-z0V9-cf-41" value="Менеджер" style="text;html=1;align=center;verticalAlign=middle;resizable=0;points=[];autosize=1;strokeColor=none;fillColor=none;fontStyle=1" vertex="1" parent="1">
          <mxGeometry x="760" y="30" width="80" height="30" as="geometry" />
        </mxCell>
        <mxCell id="cbkUk82IDQME-z0V9-cf-42" value="Создать задачу" style="html=1;align=center;verticalAlign=top;rounded=1;absoluteArcSize=1;arcSize=10;dashed=0;whiteSpace=wrap;" vertex="1" parent="1">
          <mxGeometry x="1030" y="235" width="100" height="30" as="geometry" />
        </mxCell>
        <mxCell id="cbkUk82IDQME-z0V9-cf-44" style="edgeStyle=orthogonalEdgeStyle;rounded=0;orthogonalLoop=1;jettySize=auto;html=1;" edge="1" parent="1" source="cbkUk82IDQME-z0V9-cf-43" target="cbkUk82IDQME-z0V9-cf-22">
          <mxGeometry relative="1" as="geometry" />
        </mxCell>
        <mxCell id="cbkUk82IDQME-z0V9-cf-45" style="edgeStyle=orthogonalEdgeStyle;rounded=0;orthogonalLoop=1;jettySize=auto;html=1;" edge="1" parent="1" source="cbkUk82IDQME-z0V9-cf-43" target="cbkUk82IDQME-z0V9-cf-41">
          <mxGeometry relative="1" as="geometry" />
        </mxCell>
        <mxCell id="cbkUk82IDQME-z0V9-cf-43" value="Пользователь" style="text;html=1;align=center;verticalAlign=middle;resizable=0;points=[];autosize=1;strokeColor=none;fillColor=none;fontStyle=1" vertex="1" parent="1">
          <mxGeometry x="364" y="-40" width="100" height="30" as="geometry" />
        </mxCell>
        <mxCell id="cbkUk82IDQME-z0V9-cf-46" value="Отредактировать задачу" style="html=1;align=center;verticalAlign=top;rounded=1;absoluteArcSize=1;arcSize=10;dashed=0;whiteSpace=wrap;" vertex="1" parent="1">
          <mxGeometry x="910" y="235" width="100" height="40" as="geometry" />
        </mxCell>
        <mxCell id="cbkUk82IDQME-z0V9-cf-48" value="Назначить исполнителя по задаче" style="html=1;align=center;verticalAlign=top;rounded=1;absoluteArcSize=1;arcSize=10;dashed=0;whiteSpace=wrap;" vertex="1" parent="1">
          <mxGeometry x="590" y="230" width="150" height="40" as="geometry" />
        </mxCell>
        <mxCell id="cbkUk82IDQME-z0V9-cf-50" value="Назначить задачу на группу исполнителей" style="html=1;align=center;verticalAlign=top;rounded=1;absoluteArcSize=1;arcSize=10;dashed=0;whiteSpace=wrap;" vertex="1" parent="1">
          <mxGeometry x="420" y="230" width="150" height="40" as="geometry" />
        </mxCell>
        <mxCell id="cbkUk82IDQME-z0V9-cf-52" value="При редактировании:&amp;nbsp;&lt;div&gt;Можно изменить плановый срок выполнения задачи, ее название, описание.&lt;/div&gt;" style="shape=card;whiteSpace=wrap;html=1;" vertex="1" parent="1">
          <mxGeometry x="1185" y="305" width="185" height="100" as="geometry" />
        </mxCell>
        <mxCell id="cbkUk82IDQME-z0V9-cf-54" value="Обязательно при создании: Устанавливается плановый срок выполнения задачи, имя, описание." style="shape=card;whiteSpace=wrap;html=1;" vertex="1" parent="1">
          <mxGeometry x="1197.5" y="140" width="160" height="130" as="geometry" />
        </mxCell>
        <mxCell id="cbkUk82IDQME-z0V9-cf-60" style="edgeStyle=orthogonalEdgeStyle;rounded=0;orthogonalLoop=1;jettySize=auto;html=1;" edge="1" parent="1" source="cbkUk82IDQME-z0V9-cf-56" target="cbkUk82IDQME-z0V9-cf-57">
          <mxGeometry relative="1" as="geometry" />
        </mxCell>
        <mxCell id="cbkUk82IDQME-z0V9-cf-69" style="edgeStyle=orthogonalEdgeStyle;rounded=0;orthogonalLoop=1;jettySize=auto;html=1;exitX=1;exitY=0.5;exitDx=0;exitDy=0;entryX=0;entryY=0.5;entryDx=0;entryDy=0;" edge="1" parent="1" source="cbkUk82IDQME-z0V9-cf-56" target="cbkUk82IDQME-z0V9-cf-68">
          <mxGeometry relative="1" as="geometry" />
        </mxCell>
        <mxCell id="cbkUk82IDQME-z0V9-cf-56" value="Принять в исполнение задачу" style="html=1;align=center;verticalAlign=top;rounded=1;absoluteArcSize=1;arcSize=10;dashed=0;whiteSpace=wrap;" vertex="1" parent="1">
          <mxGeometry x="-140" y="315" width="160" height="45" as="geometry" />
        </mxCell>
        <mxCell id="cbkUk82IDQME-z0V9-cf-70" style="edgeStyle=orthogonalEdgeStyle;rounded=0;orthogonalLoop=1;jettySize=auto;html=1;entryX=0;entryY=0.5;entryDx=0;entryDy=0;" edge="1" parent="1" source="cbkUk82IDQME-z0V9-cf-57" target="cbkUk82IDQME-z0V9-cf-2">
          <mxGeometry relative="1" as="geometry">
            <Array as="points">
              <mxPoint x="-170" y="432" />
              <mxPoint x="-170" y="255" />
            </Array>
          </mxGeometry>
        </mxCell>
        <mxCell id="cbkUk82IDQME-z0V9-cf-57" value="&amp;nbsp;Выполнить задачу" style="html=1;align=center;verticalAlign=top;rounded=1;absoluteArcSize=1;arcSize=10;dashed=0;whiteSpace=wrap;" vertex="1" parent="1">
          <mxGeometry x="-140" y="410" width="160" height="45" as="geometry" />
        </mxCell>
        <mxCell id="cbkUk82IDQME-z0V9-cf-61" value="При принятии в исполнение:&lt;div&gt;Таймер автоматически запускается&lt;/div&gt;" style="shape=card;whiteSpace=wrap;html=1;" vertex="1" parent="1">
          <mxGeometry x="-420" y="285" width="190" height="140" as="geometry" />
        </mxCell>
        <mxCell id="cbkUk82IDQME-z0V9-cf-62" value="Под выполнить задачу подразумевается изменение статуса задачи с &quot;In use&quot; на &quot;Completed&quot;. Таймер при этом останавливается, системы рассчитывает фактическое время выполнения задачи." style="shape=card;whiteSpace=wrap;html=1;" vertex="1" parent="1">
          <mxGeometry x="-430" y="445" width="190" height="140" as="geometry" />
        </mxCell>
        <mxCell id="cbkUk82IDQME-z0V9-cf-63" value="Удалить задачу" style="html=1;align=center;verticalAlign=top;rounded=1;absoluteArcSize=1;arcSize=10;dashed=0;whiteSpace=wrap;" vertex="1" parent="1">
          <mxGeometry x="750" y="350" width="100" height="40" as="geometry" />
        </mxCell>
        <mxCell id="cbkUk82IDQME-z0V9-cf-71" style="edgeStyle=orthogonalEdgeStyle;rounded=0;orthogonalLoop=1;jettySize=auto;html=1;entryX=1;entryY=0.5;entryDx=0;entryDy=0;" edge="1" parent="1" source="cbkUk82IDQME-z0V9-cf-68" target="cbkUk82IDQME-z0V9-cf-2">
          <mxGeometry relative="1" as="geometry">
            <Array as="points">
              <mxPoint x="130" y="255" />
            </Array>
          </mxGeometry>
        </mxCell>
        <mxCell id="cbkUk82IDQME-z0V9-cf-68" value="Вернуть задачу" style="html=1;align=center;verticalAlign=top;rounded=1;absoluteArcSize=1;arcSize=10;dashed=0;whiteSpace=wrap;" vertex="1" parent="1">
          <mxGeometry x="50" y="315" width="160" height="45" as="geometry" />
        </mxCell>
        <mxCell id="cbkUk82IDQME-z0V9-cf-94" value="" style="endArrow=classic;startArrow=classic;html=1;rounded=0;exitX=1;exitY=0.5;exitDx=0;exitDy=0;entryX=0.5;entryY=0;entryDx=0;entryDy=0;" edge="1" parent="1" source="cbkUk82IDQME-z0V9-cf-40" target="cbkUk82IDQME-z0V9-cf-42">
          <mxGeometry width="50" height="50" relative="1" as="geometry">
            <mxPoint x="940" y="140" as="sourcePoint" />
            <mxPoint x="1200" y="80" as="targetPoint" />
            <Array as="points">
              <mxPoint x="950" y="80" />
              <mxPoint x="1080" y="80" />
            </Array>
          </mxGeometry>
        </mxCell>
        <mxCell id="cbkUk82IDQME-z0V9-cf-95" value="" style="endArrow=classic;startArrow=classic;html=1;rounded=0;exitX=1;exitY=0.5;exitDx=0;exitDy=0;entryX=0.5;entryY=0;entryDx=0;entryDy=0;" edge="1" parent="1" source="cbkUk82IDQME-z0V9-cf-40" target="cbkUk82IDQME-z0V9-cf-46">
          <mxGeometry width="50" height="50" relative="1" as="geometry">
            <mxPoint x="820" y="90" as="sourcePoint" />
            <mxPoint x="1090" y="245" as="targetPoint" />
            <Array as="points">
              <mxPoint x="960" y="80" />
              <mxPoint x="960" y="200" />
            </Array>
          </mxGeometry>
        </mxCell>
        <mxCell id="cbkUk82IDQME-z0V9-cf-96" value="" style="endArrow=classic;startArrow=classic;html=1;rounded=0;entryX=0.5;entryY=1;entryDx=0;entryDy=0;exitX=0.5;exitY=0;exitDx=0;exitDy=0;" edge="1" parent="1" source="cbkUk82IDQME-z0V9-cf-63" target="cbkUk82IDQME-z0V9-cf-40">
          <mxGeometry width="50" height="50" relative="1" as="geometry">
            <mxPoint x="770" y="260" as="sourcePoint" />
            <mxPoint x="820" y="210" as="targetPoint" />
          </mxGeometry>
        </mxCell>
        <mxCell id="cbkUk82IDQME-z0V9-cf-97" value="" style="endArrow=classic;startArrow=classic;html=1;rounded=0;entryX=0;entryY=0.5;entryDx=0;entryDy=0;exitX=0.5;exitY=0;exitDx=0;exitDy=0;" edge="1" parent="1" source="cbkUk82IDQME-z0V9-cf-50" target="cbkUk82IDQME-z0V9-cf-40">
          <mxGeometry width="50" height="50" relative="1" as="geometry">
            <mxPoint x="450" y="80" as="sourcePoint" />
            <mxPoint x="720" y="60" as="targetPoint" />
            <Array as="points">
              <mxPoint x="495" y="80" />
            </Array>
          </mxGeometry>
        </mxCell>
        <mxCell id="cbkUk82IDQME-z0V9-cf-98" value="" style="endArrow=classic;startArrow=classic;html=1;rounded=0;entryX=0;entryY=0.5;entryDx=0;entryDy=0;exitX=0.5;exitY=0;exitDx=0;exitDy=0;" edge="1" parent="1" source="cbkUk82IDQME-z0V9-cf-48" target="cbkUk82IDQME-z0V9-cf-40">
          <mxGeometry width="50" height="50" relative="1" as="geometry">
            <mxPoint x="640" y="160" as="sourcePoint" />
            <mxPoint x="690" y="110" as="targetPoint" />
            <Array as="points">
              <mxPoint x="665" y="80" />
            </Array>
          </mxGeometry>
        </mxCell>
        <mxCell id="cbkUk82IDQME-z0V9-cf-100" value="Если появляется необходимость срочно переключиться на более приоритетную задачу, не закончив выполнение текущей, то сотрудник должен вернуть задачу(при этом таймер не обнуляется) и потом взять ее снова, когда поступит команда от менеджера.&amp;nbsp;" style="shape=card;whiteSpace=wrap;html=1;" vertex="1" parent="1">
          <mxGeometry x="140" y="430" width="240" height="155" as="geometry" />
        </mxCell>
      </root>
    </mxGraphModel>
  </diagram>
</mxfile>
